<svg xmlns="http://www.w3.org/2000/svg" width="680" height="132" viewBox="0 0 680 132" role="img" aria-label="Franklin Nexus">
  <defs>
    <linearGradient id="bg" x1="0" y1="0" x2="680" y2="132" gradientUnits="userSpaceOnUse">
      <stop offset="0%" stop-color="#0b0c10"/>
      <stop offset="55%" stop-color="#0f1118"/>
      <stop offset="100%" stop-color="#060644"/>
    </linearGradient>
    <linearGradient id="wave" x1="0" y1="0" x2="680" y2="0" gradientUnits="userSpaceOnUse">
      <stop offset="0%" stop-color="#060644" stop-opacity="0"/>
      <stop offset="35%" stop-color="#0009e2" stop-opacity="0.85"/>
      <stop offset="65%" stop-color="#27d7c7" stop-opacity="0.55"/>
      <stop offset="100%" stop-color="#060644" stop-opacity="0"/>
    </linearGradient>
  </defs>
  <rect width="680" height="132" rx="12" fill="url(#bg)"/>
  <rect x="1" y="1" width="678" height="130" rx="11" fill="none" stroke="#ffffff" stroke-opacity="0.06"/>
  <path d="M-20 98 C120 72, 220 108, 340 86 S560 70, 700 94" fill="none" stroke="url(#wave)" stroke-width="2.2" stroke-linecap="round"/>
  <path d="M-20 108 C140 88, 260 114, 380 96 S580 88, 700 106" fill="none" stroke="#ffffff" stroke-opacity="0.08" stroke-width="1"/>
  <text x="340" y="52" text-anchor="middle" font-family="ui-sans-serif, system-ui, -apple-system, Segoe UI, sans-serif" font-size="30" font-weight="650" fill="#f8fafc" letter-spacing="-0.5">Franklin Nexus</text>
  <text x="340" y="76" text-anchor="middle" font-family="ui-sans-serif, system-ui, sans-serif" font-size="12" fill="#94a3b8" letter-spacing="0.22em">PATHS · LOOPS · SIGNAL</text>
  <circle cx="214" cy="108" r="4" fill="#1A1F26" stroke="#e2e8f0" stroke-width="1.2"/>
  <circle cx="340" cy="108" r="4" fill="#FFB24D"/>
  <circle cx="466" cy="108" r="4" fill="#060644" stroke="#27d7c7" stroke-width="1.2"/>
  <text x="214" y="124" text-anchor="middle" font-family="ui-sans-serif, system-ui, sans-serif" font-size="9" fill="#64748b" letter-spacing="0.14em">SILICON</text>
  <text x="340" y="124" text-anchor="middle" font-family="ui-sans-serif, system-ui, sans-serif" font-size="9" fill="#64748b" letter-spacing="0.14em">CHAIN</text>
  <text x="466" y="124" text-anchor="middle" font-family="ui-sans-serif, system-ui, sans-serif" font-size="9" fill="#64748b" letter-spacing="0.14em">WAVE</text>
</svg>
